name Walk7.mot
datacolumns 19
datarows 22
range 2.01500000 2.12000000
endheader

                time	   L_ground_force_vx	   L_ground_force_vy	   L_ground_force_vz	   L_ground_force_px	   L_ground_force_py	   L_ground_force_pz	   R_ground_force_vx	   R_ground_force_vy	   R_ground_force_vz	   R_ground_force_px	   R_ground_force_py	   R_ground_force_pz	   L_ground_torque_x	   L_ground_torque_y	   L_ground_torque_z	   R_ground_torque_x	   R_ground_torque_y	   R_ground_torque_z	
          2.01500000	         23.93014663	        687.06000818	         41.82107182	         -0.31795533	          0.00000000	         -0.08014877	          0.00039299	          0.08979775	          0.01401620	          0.00008089	          0.00000000	          0.00002562	          0.00000000	          1.38380010	          0.00000000	          0.00000000	         -0.00272503	          0.00000000	
          2.02000000	         25.23460868	        691.13155326	         42.23714576	         -0.31585438	          0.00000000	         -0.08041329	         -0.00236597	          0.13303646	          0.01952003	          0.00010822	          0.00000000	          0.00003387	          0.00000000	          1.44632502	          0.00000000	          0.00000000	         -0.00331512	          0.00000000	
          2.02500000	         26.53463338	        695.10555953	         42.66001055	         -0.31370844	          0.00000000	         -0.08068774	         -0.00637644	          0.18405490	          0.02569522	          0.00013749	          0.00000000	          0.00004256	          0.00000000	          1.51234498	          0.00000000	          0.00000000	         -0.00382645	          0.00000000	
          2.03000000	         27.82662883	        698.95778858	         43.08053333	         -0.31151650	          0.00000000	         -0.08097109	         -0.01184390	          0.24091289	          0.03215575	          0.00016617	          0.00000000	          0.00005086	          0.00000000	          1.58099300	          0.00000000	          0.00000000	         -0.00415189	          0.00000000	
          2.03500000	         29.10812360	        702.67257112	         43.48945975	         -0.30927950	          0.00000000	         -0.08126324	         -0.01890906	          0.29986475	          0.03826445	          0.00019041	          0.00000000	          0.00005753	          0.00000000	          1.65149649	          0.00000000	          0.00000000	         -0.00414733	          0.00000000	
          2.04000000	         30.37805663	        706.24675190	         43.87853942	         -0.30699944	          0.00000000	         -0.08156344	         -0.02759430	          0.35481134	          0.04307116	          0.00020473	          0.00000000	          0.00006084	          0.00000000	          1.72311764	          0.00000000	          0.00000000	         -0.00362875	          0.00000000	
          2.04500000	         31.63774272	        709.68788737	         44.24056952	         -0.30467945	          0.00000000	         -0.08186932	         -0.03773474	          0.39673575	          0.04525476	          0.00020181	          0.00000000	          0.00005849	          0.00000000	          1.79478647	          0.00000000	          0.00000000	         -0.00237254	          0.00000000	
          2.05000000	         32.89035365	        713.01382382	         44.56949020	         -0.30232398	          0.00000000	         -0.08217753	         -0.04889378	          0.41318315	          0.04307864	          0.00017236	          0.00000000	          0.00004763	          0.00000000	          1.86511648	          0.00000000	          0.00000000	         -0.00012104	          0.00000000	
          2.05500000	         34.13946235	        716.25040926	         44.86049689	         -0.29993874	          0.00000000	         -0.08248413	         -0.06026499	          0.38787381	          0.03437243	          0.00010518	          0.00000000	          0.00002481	          0.00000000	          1.93270808	          0.00000000	          0.00000000	          0.00340483	          0.00000000	
          2.06000000	         35.38943470	        719.42543645	         45.10995334	         -0.29753018	          0.00000000	         -0.08278498	         -0.07056466	          0.30057121	          0.01655707	         -0.00001255	          0.00000000	         -0.00001384	          0.00000000	          1.99648481	          0.00000000	          0.00000000	          0.00848309	          0.00000000	
          2.06500000	         36.64668939	        722.56322986	         45.31596756	         -0.29510571	          0.00000000	         -0.08307611	         -0.07792314	          0.12736444	         -0.01326581	         -0.00019459	          0.00000000	         -0.00007239	          0.00000000	          2.05567040	          0.00000000	          0.00000000	          0.01535582	          0.00000000	
          2.07000000	         37.91927736	        725.68066583	         45.47919736	         -0.29267367	          0.00000000	         -0.08335399	         -0.07978771	         -0.15843831	         -0.05813494	         -0.00045446	          0.00000000	         -0.00015478	          0.00000000	          2.10962084	          0.00000000	          0.00000000	          0.02417921	          0.00000000	
          2.07500000	         39.21599040	        728.78772319	         45.60276377	         -0.29024345	          0.00000000	         -0.08361525	         -0.07285520	         -0.58457341	         -0.12093329	         -0.00080364	          0.00000000	         -0.00026415	          0.00000000	          2.15794705	          0.00000000	          0.00000000	          0.03495626	          0.00000000	
          2.08000000	         40.54641435	        731.88592729	         45.69137847	         -0.28782510	          0.00000000	         -0.08385728	         -0.05305971	         -1.17698553	         -0.20394528	         -0.00124904	          0.00000000	         -0.00040213	          0.00000000	          2.20090614	          0.00000000	          0.00000000	          0.04745068	          0.00000000	
          2.08500000	         41.92053344	        734.96406733	         45.75059493	         -0.28542861	          0.00000000	         -0.08407805	         -0.01564726	         -1.95562560	         -0.30824033	         -0.00178954	          0.00000000	         -0.00056771	          0.00000000	          2.23911612	          0.00000000	          0.00000000	          0.06108222	          0.00000000	
          2.09000000	         43.34759461	        737.99929854	         45.78628223	         -0.28306236	          0.00000000	         -0.08427670	          0.04462269	         -2.92863757	         -0.43286122	         -0.00241168	          0.00000000	         -0.00075588	          0.00000000	          2.27360607	          0.00000000	          0.00000000	          0.07480582	          0.00000000	
          2.09500000	         44.83475795	        740.95624613	         45.80388781	         -0.28073264	          0.00000000	         -0.08445341	          0.13310321	         -4.08474946	         -0.57380856	         -0.00308442	          0.00000000	         -0.00095610	          0.00000000	          2.30541873	          0.00000000	          0.00000000	          0.08698047	          0.00000000	
          2.10000000	         46.38641393	        743.78528307	         45.80750058	         -0.27844414	          0.00000000	         -0.08460929	          0.25466257	         -5.38380256	         -0.72283228	         -0.00375307	          0.00000000	         -0.00115040	          0.00000000	          2.33511249	          0.00000000	          0.00000000	          0.09523823	          0.00000000	
          2.10500000	         48.00481003	        746.42458179	         45.79919812	         -0.27620107	          0.00000000	         -0.08474507	          0.41281272	         -6.74554559	         -0.86607132	         -0.00433290	          0.00000000	         -0.00131151	          0.00000000	          2.36254458	          0.00000000	          0.00000000	          0.09636966	          0.00000000	
          2.11000000	         49.69129695	        748.80679772	         45.77835304	         -0.27400759	          0.00000000	         -0.08485964	          0.60851746	         -8.03710484	         -0.98262446	         -0.00470270	          0.00000000	         -0.00140099	          0.00000000	          2.38717935	          0.00000000	          0.00000000	          0.08624892	          0.00000000	
          2.11500000	         51.44758949	        750.86593097	         45.74144312	         -0.27186856	          0.00000000	         -0.08495026	          0.83864817	         -9.05993543	         -1.04318988	         -0.00469938	          0.00000000	         -0.00136775	          0.00000000	          2.40805252	          0.00000000	          0.00000000	          0.05982991	          0.00000000	
          2.12000000	         53.27743416	        752.54118006	         45.68239474	         -0.26978931	          0.00000000	         -0.08501445	          1.09408046	         -9.53757225	         -1.00897977	         -0.00411465	          0.00000000	         -0.00114723	          0.00000000	          2.42408287	          0.00000000	          0.00000000	          0.01125395	          0.00000000	
